<mxfile host="app.diagrams.net" modified="2023-05-30T21:15:53.613Z" agent="Mozilla/5.0 (X11; Linux x86_64) AppleWebKit/537.36 (KHTML, like Gecko) Chrome/107.0.0.0 Safari/537.36" version="21.3.6" etag="xGQlK0woqqm6SFHBHfU-" type="github">
  <diagram name="Page-1" id="Dk-d5vyqU0KMIOQefk7w">
    <mxGraphModel>
      <root>
        <mxCell id="0" />
        <mxCell id="1" parent="0" />
      </root>
    </mxGraphModel>
  </diagram>
</mxfile>
